<svg width="160" height="60" viewBox="0 0 160 60" fill="none" xmlns="http://www.w3.org/2000/svg">
<path d="M17.2615 47.16C16.1601 47.16 15.1428 46.9827 14.2095 46.628C13.2761 46.2733 12.4735 45.7787 11.8015 45.144C11.1295 44.528 10.6255 43.8 10.2895 42.96L13.2015 41.756C13.4628 42.4653 13.9388 43.0533 14.6295 43.52C15.3388 43.9867 16.2068 44.22 17.2335 44.22C18.0361 44.22 18.7548 44.0613 19.3895 43.744C20.0241 43.4453 20.5281 42.9973 20.9015 42.4C21.2748 41.8213 21.4615 41.1213 21.4615 40.3V36.884L22.0215 37.528C21.4988 38.4987 20.7708 39.236 19.8375 39.74C18.9228 40.244 17.8868 40.496 16.7295 40.496C15.3295 40.496 14.0695 40.1693 12.9495 39.516C11.8295 38.8627 10.9428 37.9667 10.2895 36.828C9.6548 35.6893 9.33747 34.4107 9.33747 32.992C9.33747 31.5547 9.6548 30.276 10.2895 29.156C10.9428 28.036 11.8201 27.1493 12.9215 26.496C14.0228 25.8427 15.2828 25.516 16.7015 25.516C17.8588 25.516 18.8855 25.768 19.7815 26.272C20.6961 26.7573 21.4428 27.4667 22.0215 28.4L21.6015 29.184V25.852H24.5975V40.3C24.5975 41.6067 24.2801 42.7733 23.6455 43.8C23.0295 44.8453 22.1708 45.6667 21.0695 46.264C19.9681 46.8613 18.6988 47.16 17.2615 47.16ZM17.0935 37.556C17.9335 37.556 18.6801 37.36 19.3335 36.968C19.9868 36.5573 20.5001 36.016 20.8735 35.344C21.2655 34.6533 21.4615 33.8787 21.4615 33.02C21.4615 32.1613 21.2655 31.3867 20.8735 30.696C20.4815 30.0053 19.9588 29.464 19.3055 29.072C18.6521 28.6613 17.9148 28.456 17.0935 28.456C16.2348 28.456 15.4695 28.6613 14.7975 29.072C14.1255 29.464 13.5935 30.0053 13.2015 30.696C12.8281 31.368 12.6415 32.1427 12.6415 33.02C12.6415 33.86 12.8281 34.6253 13.2015 35.316C13.5935 36.0067 14.1255 36.5573 14.7975 36.968C15.4695 37.36 16.2348 37.556 17.0935 37.556ZM35.6091 41.336C34.1531 41.336 32.8185 40.9907 31.6051 40.3C30.4105 39.6093 29.4585 38.6667 28.7491 37.472C28.0398 36.2773 27.6851 34.924 27.6851 33.412C27.6851 31.8813 28.0398 30.528 28.7491 29.352C29.4585 28.1573 30.4105 27.224 31.6051 26.552C32.7998 25.8613 34.1345 25.516 35.6091 25.516C37.1025 25.516 38.4371 25.8613 39.6131 26.552C40.8078 27.224 41.7505 28.1573 42.4411 29.352C43.1505 30.528 43.5051 31.8813 43.5051 33.412C43.5051 34.9427 43.1505 36.3053 42.4411 37.5C41.7318 38.6947 40.7798 39.6373 39.5851 40.328C38.3905 41 37.0651 41.336 35.6091 41.336ZM35.6091 38.396C36.5051 38.396 37.2985 38.1813 37.9891 37.752C38.6798 37.3227 39.2211 36.7347 39.6131 35.988C40.0238 35.2227 40.2291 34.364 40.2291 33.412C40.2291 32.46 40.0238 31.6107 39.6131 30.864C39.2211 30.1173 38.6798 29.5293 37.9891 29.1C37.2985 28.6707 36.5051 28.456 35.6091 28.456C34.7318 28.456 33.9385 28.6707 33.2291 29.1C32.5385 29.5293 31.9878 30.1173 31.5771 30.864C31.1851 31.6107 30.9891 32.46 30.9891 33.412C30.9891 34.364 31.1851 35.2227 31.5771 35.988C31.9878 36.7347 32.5385 37.3227 33.2291 37.752C33.9385 38.1813 34.7318 38.396 35.6091 38.396ZM46.5941 41V25.852H49.6181V28.904L49.3381 28.456C49.6741 27.4667 50.2154 26.7573 50.9621 26.328C51.7088 25.88 52.6048 25.656 53.6501 25.656H54.5741V28.54H53.2581C52.2128 28.54 51.3634 28.8667 50.7101 29.52C50.0754 30.1547 49.7581 31.0693 49.7581 32.264V41H46.5941ZM64.0466 41.336C62.5906 41.336 61.256 40.9907 60.0426 40.3C58.848 39.6093 57.896 38.6667 57.1866 37.472C56.4773 36.2773 56.1226 34.924 56.1226 33.412C56.1226 31.8813 56.4773 30.528 57.1866 29.352C57.896 28.1573 58.848 27.224 60.0426 26.552C61.2373 25.8613 62.572 25.516 64.0466 25.516C65.54 25.516 66.8746 25.8613 68.0506 26.552C69.2453 27.224 70.188 28.1573 70.8786 29.352C71.588 30.528 71.9426 31.8813 71.9426 33.412C71.9426 34.9427 71.588 36.3053 70.8786 37.5C70.1693 38.6947 69.2173 39.6373 68.0226 40.328C66.828 41 65.5026 41.336 64.0466 41.336ZM64.0466 38.396C64.9426 38.396 65.736 38.1813 66.4266 37.752C67.1173 37.3227 67.6586 36.7347 68.0506 35.988C68.4613 35.2227 68.6666 34.364 68.6666 33.412C68.6666 32.46 68.4613 31.6107 68.0506 30.864C67.6586 30.1173 67.1173 29.5293 66.4266 29.1C65.736 28.6707 64.9426 28.456 64.0466 28.456C63.1693 28.456 62.376 28.6707 61.6666 29.1C60.976 29.5293 60.4253 30.1173 60.0146 30.864C59.6226 31.6107 59.4266 32.46 59.4266 33.412C59.4266 34.364 59.6226 35.2227 60.0146 35.988C60.4253 36.7347 60.976 37.3227 61.6666 37.752C62.376 38.1813 63.1693 38.396 64.0466 38.396ZM75.0316 41V25.852H78.0556V28.904L77.7756 28.456C78.1116 27.4667 78.6529 26.7573 79.3996 26.328C80.1463 25.88 81.0423 25.656 82.0876 25.656H83.0116V28.54H81.6956C80.6503 28.54 79.8009 28.8667 79.1476 29.52C78.5129 30.1547 78.1956 31.0693 78.1956 32.264V41H75.0316ZM92.4841 41.336C91.0281 41.336 89.6935 40.9907 88.4801 40.3C87.2855 39.6093 86.3335 38.6667 85.6241 37.472C84.9148 36.2773 84.5601 34.924 84.5601 33.412C84.5601 31.8813 84.9148 30.528 85.6241 29.352C86.3335 28.1573 87.2855 27.224 88.4801 26.552C89.6748 25.8613 91.0095 25.516 92.4841 25.516C93.9775 25.516 95.3121 25.8613 96.4881 26.552C97.6828 27.224 98.6255 28.1573 99.3161 29.352C100.025 30.528 100.38 31.8813 100.38 33.412C100.38 34.9427 100.025 36.3053 99.3161 37.5C98.6068 38.6947 97.6548 39.6373 96.4601 40.328C95.2655 41 93.9401 41.336 92.4841 41.336ZM92.4841 38.396C93.3801 38.396 94.1735 38.1813 94.8641 37.752C95.5548 37.3227 96.0961 36.7347 96.4881 35.988C96.8988 35.2227 97.1041 34.364 97.1041 33.412C97.1041 32.46 96.8988 31.6107 96.4881 30.864C96.0961 30.1173 95.5548 29.5293 94.8641 29.1C94.1735 28.6707 93.3801 28.456 92.4841 28.456C91.6068 28.456 90.8135 28.6707 90.1041 29.1C89.4135 29.5293 88.8628 30.1173 88.4521 30.864C88.0601 31.6107 87.8641 32.46 87.8641 33.412C87.8641 34.364 88.0601 35.2227 88.4521 35.988C88.8628 36.7347 89.4135 37.3227 90.1041 37.752C90.8135 38.1813 91.6068 38.396 92.4841 38.396ZM111.561 41.336C110.385 41.336 109.312 41.0933 108.341 40.608C107.389 40.1227 106.652 39.4227 106.129 38.508L106.493 37.92V41H103.469V19.804H106.633V28.988L106.129 28.26C106.689 27.4013 107.436 26.7293 108.369 26.244C109.302 25.7587 110.366 25.516 111.561 25.516C112.998 25.516 114.286 25.8613 115.425 26.552C116.582 27.2427 117.488 28.1853 118.141 29.38C118.813 30.5747 119.149 31.9187 119.149 33.412C119.149 34.9053 118.813 36.2493 118.141 37.444C117.488 38.6387 116.592 39.5907 115.453 40.3C114.314 40.9907 113.017 41.336 111.561 41.336ZM111.253 38.396C112.149 38.396 112.942 38.1813 113.633 37.752C114.324 37.3227 114.865 36.7347 115.257 35.988C115.668 35.2227 115.873 34.364 115.873 33.412C115.873 32.46 115.668 31.6107 115.257 30.864C114.865 30.1173 114.324 29.5293 113.633 29.1C112.942 28.6707 112.149 28.456 111.253 28.456C110.376 28.456 109.582 28.6707 108.873 29.1C108.182 29.5293 107.632 30.1173 107.221 30.864C106.829 31.6107 106.633 32.46 106.633 33.412C106.633 34.364 106.829 35.2227 107.221 35.988C107.632 36.7347 108.182 37.3227 108.873 37.752C109.582 38.1813 110.376 38.396 111.253 38.396ZM126.763 41.336C125.736 41.336 124.831 41.1587 124.047 40.804C123.282 40.4307 122.684 39.9267 122.255 39.292C121.826 38.6387 121.611 37.8733 121.611 36.996C121.611 36.1747 121.788 35.4373 122.143 34.784C122.516 34.1307 123.086 33.58 123.851 33.132C124.616 32.684 125.578 32.3667 126.735 32.18L131.999 31.312V33.804L127.351 34.616C126.511 34.7653 125.895 35.036 125.503 35.428C125.111 35.8013 124.915 36.2867 124.915 36.884C124.915 37.4627 125.13 37.9387 125.559 38.312C126.007 38.6667 126.576 38.844 127.267 38.844C128.126 38.844 128.872 38.6573 129.507 38.284C130.16 37.9107 130.664 37.416 131.019 36.8C131.374 36.1653 131.551 35.4653 131.551 34.7V30.808C131.551 30.0613 131.271 29.4547 130.711 28.988C130.17 28.5027 129.442 28.26 128.527 28.26C127.687 28.26 126.95 28.484 126.315 28.932C125.699 29.3613 125.242 29.9213 124.943 30.612L122.311 29.296C122.591 28.5493 123.048 27.896 123.683 27.336C124.318 26.7573 125.055 26.3093 125.895 25.992C126.754 25.6747 127.659 25.516 128.611 25.516C129.806 25.516 130.86 25.74 131.775 26.188C132.708 26.636 133.427 27.2613 133.931 28.064C134.454 28.848 134.715 29.7627 134.715 30.808V41H131.691V38.256L132.335 38.34C131.98 38.956 131.523 39.488 130.963 39.936C130.422 40.384 129.796 40.7293 129.087 40.972C128.396 41.2147 127.622 41.336 126.763 41.336ZM144.014 41.336C142.465 41.336 141.102 40.9533 139.926 40.188C138.769 39.4227 137.957 38.396 137.49 37.108L139.926 35.96C140.337 36.8187 140.897 37.5 141.606 38.004C142.334 38.508 143.137 38.76 144.014 38.76C144.761 38.76 145.368 38.592 145.834 38.256C146.301 37.92 146.534 37.4627 146.534 36.884C146.534 36.5107 146.432 36.212 146.226 35.988C146.021 35.7453 145.76 35.5493 145.442 35.4C145.144 35.2507 144.836 35.1387 144.518 35.064L142.138 34.392C140.832 34.0187 139.852 33.4587 139.198 32.712C138.564 31.9467 138.246 31.06 138.246 30.052C138.246 29.1373 138.48 28.344 138.946 27.672C139.413 26.9813 140.057 26.4493 140.878 26.076C141.7 25.7027 142.624 25.516 143.65 25.516C145.032 25.516 146.264 25.8613 147.346 26.552C148.429 27.224 149.194 28.1667 149.642 29.38L147.206 30.528C146.908 29.8 146.432 29.2213 145.778 28.792C145.144 28.3627 144.425 28.148 143.622 28.148C142.932 28.148 142.381 28.316 141.97 28.652C141.56 28.9693 141.354 29.3893 141.354 29.912C141.354 30.2667 141.448 30.5653 141.634 30.808C141.821 31.032 142.064 31.2187 142.362 31.368C142.661 31.4987 142.969 31.6107 143.286 31.704L145.75 32.432C147.001 32.7867 147.962 33.3467 148.634 34.112C149.306 34.8587 149.642 35.7547 149.642 36.8C149.642 37.696 149.4 38.4893 148.914 39.18C148.448 39.852 147.794 40.384 146.954 40.776C146.114 41.1493 145.134 41.336 144.014 41.336Z" fill="#FF785A"/>
</svg>
