<svg width="60" height="60" viewBox="0 0 60 60" fill="none" xmlns="http://www.w3.org/2000/svg">
<g clip-path="url(#clip0_1307_2222)">
<rect width="60" height="60" rx="30" fill="#FFE6E1"/>
<path d="M29.4643 52.32C27.2617 52.32 25.227 51.9653 23.3603 51.256C21.4937 50.5467 19.8883 49.5573 18.5443 48.288C17.2003 47.056 16.1923 45.6 15.5203 43.92L21.3443 41.512C21.867 42.9307 22.819 44.1067 24.2003 45.04C25.619 45.9733 27.355 46.44 29.4083 46.44C31.0137 46.44 32.451 46.1227 33.7203 45.488C34.9897 44.8907 35.9977 43.9947 36.7443 42.8C37.491 41.6427 37.8643 40.2427 37.8643 38.6V31.768L38.9843 33.056C37.939 34.9973 36.483 36.472 34.6163 37.48C32.787 38.488 30.715 38.992 28.4003 38.992C25.6003 38.992 23.0803 38.3387 20.8403 37.032C18.6003 35.7253 16.827 33.9333 15.5203 31.656C14.251 29.3787 13.6163 26.8213 13.6163 23.984C13.6163 21.1093 14.251 18.552 15.5203 16.312C16.827 14.072 18.5817 12.2987 20.7843 10.992C22.987 9.68533 25.507 9.032 28.3443 9.032C30.659 9.032 32.7123 9.536 34.5043 10.544C36.3337 11.5147 37.827 12.9333 38.9843 14.8L38.1443 16.368V9.704H44.1363V38.6C44.1363 41.2133 43.5017 43.5467 42.2323 45.6C41.0003 47.6907 39.283 49.3333 37.0803 50.528C34.8777 51.7227 32.339 52.32 29.4643 52.32ZM29.1283 33.112C30.8083 33.112 32.3017 32.72 33.6083 31.936C34.915 31.1147 35.9417 30.032 36.6883 28.688C37.4723 27.3067 37.8643 25.7573 37.8643 24.04C37.8643 22.3227 37.4723 20.7733 36.6883 19.392C35.9043 18.0107 34.859 16.928 33.5523 16.144C32.2457 15.3227 30.771 14.912 29.1283 14.912C27.411 14.912 25.8803 15.3227 24.5363 16.144C23.1923 16.928 22.1283 18.0107 21.3443 19.392C20.5977 20.736 20.2243 22.2853 20.2243 24.04C20.2243 25.72 20.5977 27.2507 21.3443 28.632C22.1283 30.0133 23.1923 31.1147 24.5363 31.936C25.8803 32.72 27.411 33.112 29.1283 33.112Z" fill="#FF785A"/>
</g>
<defs>
<clipPath id="clip0_1307_2222">
<rect width="60" height="60" rx="30" fill="white"/>
</clipPath>
</defs>
</svg>
